# xmcd
#
# Track frame offsets:
#	150
#	23299
#	47898
#	76531
#	95811
#	158881
#	169699
#
# Disc length: 2767 seconds
#
# Revision: 0
# Processed by: cddbd v1.5.2PL0 Copyright (c) Steve Scherf et al.
# Submitted via: audiograbber 1.83.01
#
DISCID=430acd07
DTITLE=Grateful Dead - 71-03-18 Fox Theatre, St Louis MO
DYEAR=1900
DGENRE=
TTITLE0=Pump Song
TTITLE1=Johnny B Goode
TTITLE2=Not Fade Away
TTITLE3=Going Down The Road Feeling Bad
TTITLE4=Caution
TTITLE5=Feedback
TTITLE6=Uncle John's Band
EXTD=
EXTT0=
EXTT1=
EXTT2=
EXTT3=
EXTT4=
EXTT5=
EXTT6=
PLAYORDER=
